# xmcd
#
# Track frame offsets: 
#        150
#        32803
#        64400
#        93281
#        122980
#        160346
#        190689
#        219440
#        252280
#        280809
#        310644
#
# Disc length: 4790 seconds
#
# Revision: 1
# Processed by: cddbd v1.5.2PL0 Copyright (c) Steve Scherf et al.
# Submitted via: ExactAudioCopy v1.1
#
DISCID=9912b40b
DTITLE=Various Artist - Akella Presents - vol.110 - Long Time Blues  
DTITLE=CD1
DYEAR=2017
DGENRE=Blues
TTITLE0=Jim Mesi Band - Dangerous Mood
TTITLE1=The Mick Pini Band - I Feel So Bad
TTITLE2=Awek - I Wanna Be Your Man
TTITLE3=Sonny Moorman Group - Last Call
TTITLE4=The Fins - I Love The Woman
TTITLE5=Chick Willis - I'm Your Hoochie Coochie Man
TTITLE6=Bob Lanza Blues Band - Love and Kindness
TTITLE7=Mike Dugan and The Blues Mission - Rust Belt Blues
TTITLE8=Mel Brown and The Homewreckers - I'm In the Mood
TTITLE9=Johnny Tornado's Stormriders - Mister Blues
TTITLE10=Joe Pitts - Funked Up
EXTD=
EXTT0=
EXTT1=
EXTT2=
EXTT3=
EXTT4=
EXTT5=
EXTT6=
EXTT7=
EXTT8=
EXTT9=
EXTT10=
PLAYORDER=
